Coordinates
version=1
nRows=27
nColumns=12
inDegrees=yes

Units are S.I. units (second, meters, Newtons, ...)
Angles are in degrees

endheader
time	SC_y	SC_z	SC_x	AC_y	AC_z	AC_x	GH_y	GH_z	GH_yy	EL_x	PS_y
       0.0              -26.25        -0.7508          63.01          44.16          -3.92          9.971          149.4           27.4         -130.0          34.23          23.83
   0.01606              -26.25        -0.7451          63.01          44.16         -3.922          9.968          149.3           27.4         -130.0          34.22          23.84
   0.03212              -26.26         -0.739          63.01          44.17         -3.923          9.965          149.3           27.4         -130.0          34.22          23.84
   0.04818              -26.26        -0.7326          63.01          44.17         -3.925          9.962          149.3           27.4         -129.9          34.22          23.85
   0.06424              -26.27        -0.7258          63.01          44.17         -3.927          9.958          149.3           27.4         -129.9          34.21          23.86
    0.0803              -26.27        -0.7185          63.01          44.18          -3.93          9.955          149.3           27.4         -129.9          34.21          23.87
   0.09636              -26.28        -0.7108          63.01          44.18         -3.932          9.951          149.2           27.4         -129.8          34.21          23.88
    0.1124              -26.29        -0.7024          63.01          44.19         -3.934          9.947          149.2           27.4         -129.8           34.2           23.9
    0.1285              -26.29        -0.6936          63.01          44.19         -3.937          9.942          149.2          27.39         -129.8           34.2          23.91
    0.1445               -26.3         -0.684          63.02           44.2          -3.94          9.938          149.2          27.39         -129.7           34.2          23.92
    0.1606              -26.31        -0.6738          63.02          44.21         -3.943          9.932          149.1          27.39         -129.7          34.19          23.94
    0.1767              -26.32        -0.6627          63.02          44.21         -3.946          9.927          149.1          27.39         -129.6          34.19          23.95
    0.1927              -26.33        -0.6508          63.02          44.22          -3.95          9.921          149.1          27.39         -129.6          34.18          23.97
    0.2088              -26.34         -0.638          63.02          44.23         -3.954          9.915          149.0          27.39         -129.5          34.17          23.99
    0.2248              -26.35        -0.6241          63.02          44.23         -3.958          9.908          149.0          27.39         -129.5          34.17          24.01
    0.2409              -26.36         -0.609          63.02          44.24         -3.963            9.9          149.0          27.38         -129.4          34.16          24.03
     0.257              -26.38        -0.5926          63.02          44.25         -3.967          9.892          148.9          27.38         -129.4          34.15          24.05
     0.273              -26.39        -0.5747          63.03          44.26         -3.973          9.883          148.9          27.38         -129.3          34.15          24.08
    0.2891              -26.41        -0.5553          63.03          44.27         -3.979          9.873          148.8          27.38         -129.2          34.14           24.1
    0.3051              -26.42        -0.5339          63.03          44.29         -3.985          9.863          148.7          27.37         -129.1          34.13          24.13
    0.3212              -26.44        -0.5105          63.03           44.3         -3.992          9.851          148.7          27.37         -129.0          34.12          24.17
    0.3373              -26.46        -0.4847          63.03          44.32           -4.0          9.838          148.6          27.37         -128.9           34.1           24.2
    0.3533              -26.49        -0.4562          63.04          44.33         -4.009          9.824          148.5          27.36         -128.8          34.09          24.24
    0.3694              -26.51        -0.4246          63.04          44.35         -4.018          9.808          148.4          27.36         -128.6          34.08          24.29
    0.3855              -26.54        -0.3895          63.04          44.37         -4.029           9.79          148.3          27.35         -128.5          34.06          24.34
    0.4015              -26.57        -0.3504          63.05          44.39          -4.04          9.771          148.2          27.35         -128.3          34.04          24.39
    0.4176              -26.61        -0.3065          63.05          44.42         -4.054          9.749          148.1          27.34         -128.1          34.02          24.46
